HIERARCHY
ROOT Hips
{
  OFFSET -1.2254 72.9949 1.39929
  CHANNELS 6 Xposition Yposition Zposition Zrotation Xrotation Yrotation
  JOINT Spine
  {
    OFFSET -0.000355721 21.3001 -0.016921
    CHANNELS 3 Zrotation Xrotation Yrotation
    JOINT LeftArm
    {
      OFFSET 13.5181 21.3012 0
      CHANNELS 3 Zrotation Xrotation Yrotation
      JOINT LeftForeArm
      {
        OFFSET 24.5783 0 0
        CHANNELS 3 Zrotation Xrotation Yrotation
        JOINT LeftHand
        {
          OFFSET 24.5783 0 0
          CHANNELS 3 Zrotation Xrotation Yrotation
          End Site
          {
            OFFSET 7.32568 1.52588e-05 0.0169305
          }
        }
      }
    }
    JOINT Head
    {
      OFFSET 0 27.4458 -0.00489235
      CHANNELS 3 Zrotation Xrotation Yrotation
      End Site
      {
        OFFSET 0 0 0
      }
    }
    JOINT RightArm
    {
      OFFSET -13.5174 21.3012 0
      CHANNELS 3 Zrotation Xrotation Yrotation
      JOINT RightForeArm
      {
        OFFSET -24.5783 0 0
        CHANNELS 3 Zrotation Xrotation Yrotation
        JOINT RightHand
        {
          OFFSET -24.5783 0 0
          CHANNELS 3 Zrotation Xrotation Yrotation
          End Site
          {
            OFFSET -7.32568 1.52588e-05 0.0169305
          }
        }
      }
    }
  }
  JOINT RightUpLeg
  {
    OFFSET -8.44614 -9.41038 0.835684
    CHANNELS 3 Zrotation Xrotation Yrotation
    JOINT RightLeg
    {
      OFFSET 0 -40.9639 0
      CHANNELS 3 Zrotation Xrotation Yrotation
      JOINT RightFoot
      {
        OFFSET 0 -40.9639 0
        CHANNELS 3 Zrotation Xrotation Yrotation
        End Site
        {
          OFFSET 0.50614 -9.67405 14.6709
        }
      }
    }
  }
  JOINT LeftUpLeg
  {
    OFFSET 8.44614 -9.41038 0.835684
    CHANNELS 3 Zrotation Xrotation Yrotation
    JOINT LeftLeg
    {
      OFFSET 0 -40.9639 0
      CHANNELS 3 Zrotation Xrotation Yrotation
      JOINT LeftFoot
      {
        OFFSET 0 -40.9639 0
        CHANNELS 3 Zrotation Xrotation Yrotation
        End Site
        {
          OFFSET -0.50614 -9.67405 14.6709
        }
      }
    }
  }
}
MOTION
Frames:	18
Frame Time:	0.0333333
-1.22814 72.9949 1.40217 6.436 17.2306 5.53996 7.36561 8.64118 -15.4399 -5.43446 -18.1819 -94.0726 0.000265364 6.26474e-06 -94.71 10.8942 11.5854 -23.4359 -15.6044 -2.15701 3.3026 48.4036 -28.5018 -29.9435 -0.000363707 9.38428e-06 10.7214 -19.7046 9.22844 23.5166 -18.612 -80.5652 -16.264 3.17933 53.705 -7.689 -22.0638 -17.0717 -28.8619 -8.48706 6.82903 13.593 -13.6502 43.0872 20.0606 -7.76341 -54.5509 7.99015 
-0.494638 73.8184 4.20844 3.9923 18.2506 3.4889 7.71729 7.21126 -13.5927 -6.32197 -20.5193 -96.4881 0.00026522 -4.16744e-06 -86.8687 18.4337 11.5024 -31.001 -11.7764 -2.83212 5.3958 47.8693 -31.9836 -30.6347 -0.000363481 9.42424e-06 9.34532 -19.6049 2.61382 16.1872 -8.44415 -80.5853 -8.66513 5.87019 54.8126 -10.6703 -22.542 -20.5345 -27.5989 -5.21175 1.60017 12.7516 -15.774 50.9761 17.8751 -5.71387 -42.4659 10.9375 
0.597045 75.4373 8.93424 0.475021 19.491 0.253801 8.17953 5.09415 -10.7077 -8.55661 -23.2942 -100.157 0.000267938 -2.05939e-05 -74.34 30.4822 9.94889 -42.2378 -5.83405 -3.73011 8.73164 46.997 -36.9368 -32.0446 -0.000363138 9.47432e-06 7.26519 -22.4289 -8.7677 5.02175 5.24884 -78.5432 0.970639 9.79577 55.5559 -14.3283 -23.2093 -25.8822 -25.7799 -1.82853 -2.63402 12.6508 -18.7928 57.6727 16.9109 -6.5321 -33.6607 14.41 
1.71074 77.5357 14.5774 -2.58213 19.6546 -3.19621 8.71768 3.09293 -7.89056 -11.8949 -24.9089 -102.871 0.000274743 -3.7117e-05 -60.8892 42.3347 6.97633 -52.7164 -0.133519 -4.06412 12.082 45.4778 -41.5812 -34.1191 -0.000362776 9.51346e-06 5.08226 -29.492 -21.6167 -8.12502 11.8848 -73.4241 3.42885 12.6917 55.6578 -16.1519 -23.4592 -31.7174 -23.8632 2.04654 -7.65339 14.0136 -24.9757 65.3995 19.1522 -8.7091 -24.3505 16.6816 
2.53923 79.9428 20.1813 -3.45855 17.6541 -6.57449 9.03051 1.78686 -6.04931 -15.1161 -25.3 -101.636 0.000283274 -4.94174e-05 -49.6298 50.2137 4.32669 -59.2131 2.98523 -3.11326 14.4074 42.3866 -44.7343 -36.4856 -0.000362459 9.53631e-06 3.1784 -39.9579 -31.9925 -22.6991 11.4976 -65.7185 0.256698 12.4938 55.5253 -14.7994 -22.7022 -37.2518 -21.6262 5.254 -12.0835 16.5457 -36.101 72.1921 29.276 -11.4555 -14.5535 15.7731 
2.96656 82.4624 24.987 -1.44264 13.2828 -10.2705 8.86096 1.23019 -5.25925 -16.6783 -25.3422 -94.5693 0.000291063 -5.73315e-05 -41.2834 53.6272 3.66811 -60.7337 2.30581 -0.884472 16.0547 36.7316 -45.8919 -38.013 -0.000362217 9.54669e-06 1.72232 -52.1892 -37.4187 -37.2555 8.14017 -56.5622 -3.41903 8.63916 55.2445 -11.0902 -19.9069 -42.0662 -17.9042 4.53631 -10.9297 18.857 -39.03 73.1848 36.4146 -12.2904 -8.33973 11.2553 
3.21427 84.7708 29.1392 2.88386 7.12241 -15.0182 8.27771 1.13884 -4.91779 -15.8157 -24.955 -81.6339 0.000298508 -6.30957e-05 -34.2074 53.95 6.14948 -57.4469 -1.905 2.04767 18.6718 29.6856 -44.4258 -35.7231 -0.000362125 9.54902e-06 1.16849 -63.3616 -37.9172 -48.046 3.44355 -47.3433 -5.53589 2.54319 55.1262 -6.42619 -14.6731 -46.379 -11.9441 4.83652 -17.0624 22.289 -77.8334 80.3991 77.4295 -11.4176 -11.0607 5.27031 
3.55767 87.0829 33.0724 8.85374 -0.271742 -21.714 7.05915 1.28395 -4.37464 -13.7656 -23.0526 -64.0291 0.00030726 -6.82294e-05 -26.5818 51.75 13.0727 -49.8671 -8.5736 4.94524 23.7473 24.3107 -39.6307 -25.6439 -0.000362349 9.54181e-06 2.51443 -70.5136 -36.1201 -51.9922 -3.77175 -38.77 -7.11177 -3.52296 54.0164 0.503929 -8.75834 -49.0478 -5.10503 7.51403 -28.3772 27.3664 -147.037 76.5106 147.399 -13.2917 -13.4295 2.10792 
4.22718 89.3356 36.8665 15.3346 -8.72077 -30.7227 5.43059 1.60573 -3.31272 -13.4961 -19.5324 -43.7178 0.000317806 -7.25542e-05 -18.0138 46.4167 24.8397 -39.5453 -16.692 6.83478 31.5454 20.5894 -31.8778 -6.56289 -3.78274e-05 9.48647e-06 6.66411 -72.0401 -35.0119 -49.1911 -15.1195 -33.6026 -10.4573 -7.43256 53.6445 11.9316 -5.27759 -48.0596 -1.07774 14.0761 -36.1349 32.445 -165.969 67.7059 165.638 -15.6616 -15.9965 1.52336 
5.66944 91.4627 40.9393 21.3069 -18.0954 -41.4618 3.94753 2.0596 -1.81522 -17.3282 -16.26 -22.4249 0.000328461 -7.51887e-05 -9.76445 39.3187 38.9987 -29.8245 -25.5517 6.4219 40.8857 15.5722 -24.701 19.9935 0.0205137 9.28804e-06 13.4762 -66.8072 -35.878 -41.0429 -26.7289 -31.6145 -16.6581 -8.23426 51.428 11.7573 -7.3368 -44.9486 -2.76529 25.3182 -36.3348 34.2374 -171.694 59.3869 166.592 -16.9791 -24.2304 0.146164 
7.18872 93.5883 45.6193 27.2039 -28.0995 -51.9758 2.57572 2.48498 -0.243733 -25.3209 -15.8599 -1.18054 0.000336555 -7.61399e-05 -3.64107 37.581 51.4643 -26.8318 -34.2927 2.7895 49.0853 11.1817 -21.9569 52.2004 -8.07553e-05 8.87146e-06 21.7436 -54.6754 -37.7672 -28.971 -38.3137 -33.1224 -25.5643 -7.02905 44.6004 0.409895 -8.15748 -41.7717 -7.61764 41.3926 -35.0894 35.0652 -173.211 55.2547 166.472 -22.1937 -24.6533 -0.797453 
8.25105 95.5062 50.1815 34.3326 -37.5345 -59.3248 1.29924 2.66993 1.16314 -35.5928 -19.4415 19.3053 0.000340681 -7.62906e-05 -0.540339 49.0342 58.6645 -36.2989 -41.6793 -3.29709 53.0702 10.6016 -19.403 85.4751 -0.00151624 8.2299e-06 30.4943 -39.1739 -37.3463 -14.8064 -48.7167 -35.412 -34.6488 -5.9286 32.1677 -6.9001 -11.8495 -39.6587 -13.1825 60.2197 -33.5061 35.4062 -173.459 62.7772 163.803 -25.9093 -11.5049 2.64682 
8.53039 96.6834 53.7919 44.0346 -44.9922 -60.8183 -0.340748 2.51362 2.46624 -46.217 -25.9813 37.5838 0.0003414 -7.62939e-05 2.35367e-06 61.3557 59.5189 -47.2136 -46.6647 -8.86778 51.9848 7.18312 -13.2135 111.116 -0.00151754 7.30914e-06 40.0686 -28.4086 -31.138 -1.88402 -57.2895 -37.5909 -41.7605 -5.08635 17.098 -7.09185 -10.1031 -33.238 -10.3701 67.022 -26.9118 32.5283 -9.23489 86.4653 -4.60993 -30.2099 2.02203 6.22868 
8.15831 97.1315 56.7784 54.7418 -48.7689 -56.7969 -1.46569 2.14095 3.45424 -55.7948 -34.4918 51.0438 0.0003414 -7.62939e-05 -2.96299e-05 51.4502 59.5213 -40.6062 -49.1866 -10.7621 47.6993 -3.85829 -8.62995 124.97 -0.00151885 5.96374e-06 51.3611 -27.8308 -19.5138 7.43663 -64.4736 -38.9806 -46.5724 -6.39656 6.15959 -5.69527 -6.36174 -25.9819 -6.80141 66.1006 -16.773 28.9291 4.14309 45.4449 -13.1558 -8.66601 4.44429 4.23952 
7.29858 97.0122 58.3389 64.4262 -50.5578 -50.1875 -2.71688 1.87601 4.30946 -62.2774 -43.0598 58.674 0.000341265 -7.62938e-05 -0.101753 17.7001 58.0426 -14.7115 -50.3517 -8.43708 42.8828 -18.75 -5.27028 130.207 -0.00151994 4.25008e-06 63.5774 -33.8376 -6.69662 13.999 -73.5581 -40.6543 -51.7936 -7.61034 5.36776 -7.588 -3.3051 -24.7783 -4.22934 61.1218 -6.46359 28.8774 5.19403 4.47092 -6.25059 -10.0587 6.50945 5.96129 
7.54212 96.6228 59.8544 70.9093 -51.8276 -44.3942 -3.07402 2.00942 4.7949 -63.9871 -48.1507 63.9131 0.000341316 -7.62939e-05 -0.0627226 -12.044 51.8807 7.58779 -51.784 -4.10011 39.7928 -31.6019 3.12564 134.498 -0.00152055 2.71684e-06 73.4736 -38.1558 2.86494 18.8751 -81.5524 -39.9832 -56.6645 -7.21132 5.97226 -8.39827 -1.7769 -24.1219 -2.6071 58.1626 -7.52553 30.8277 7.16984 3.13754 -12.6684 -10.0103 -6.25054 4.69765 
8.40911 95.8926 60.7315 74.8574 -54.4703 -40.7741 -3.19106 2.56603 5.01345 -62.029 -48.3434 68.8106 0.000341149 -7.62935e-05 -0.188177 -18.5903 49.2102 10.1145 -54.3556 -0.0762975 39.1022 -38.9745 17.1407 140.763 -0.00152072 2.03186e-06 77.7171 -35.2939 7.82678 22.1474 -87.5047 -39.4884 -61.0261 -6.86734 7.0689 -6.87777 -0.676834 -23.9724 -0.661879 53.0788 -7.24712 32.5529 7.22334 3.01526 -3.95476 -10.2147 -2.02153 11.4468 
9.78677 95.2145 61.5263 75.5398 -58.1218 -40.7149 -2.88945 3.3034 4.73158 -60.1831 -45.0295 69.7664 0.00034085 -7.6292e-05 -0.412835 -0.580602 50.905 -7.33144 -57.3401 3.15589 39.5934 -39.719 31.2871 143.448 -0.00152066 2.29515e-06 76.0955 -26.4779 10.1269 24.7454 -90.5218 -39.8867 -64.0537 -6.51025 7.3554 -4.09614 0.143473 -23.2598 1.69899 51.608 -8.67327 32.7224 6.3466 17.3113 -1.52137 -7.49432 4.11116 17.1311 
